<svg xmlns="http://www.w3.org/2000/svg" width="13.375" height="20.53" viewBox="0 0 13.375 20.53">
  <defs>
    <style>
      .cls-1 {
        fill: #fff;
        fill-rule: evenodd;
        opacity: 0.39;
      }
    </style>
  </defs>
  <path id="call.svg" class="cls-1" d="M682.973,1304.28a3.82,3.82,0,0,1-1.151-.7,19.542,19.542,0,0,1-6.423-15.34,4.114,4.114,0,0,1,2.783-3.79l1.015-.33a2.517,2.517,0,0,1,1.711.06,2.783,2.783,0,0,1,1.725,2.31l0.371,3.27a2.076,2.076,0,0,1-.1.92,1.9,1.9,0,0,1-.9,1.07l-0.391.21a1.127,1.127,0,0,0-.562,1.12,5.477,5.477,0,0,0,1.29,2.97,1.033,1.033,0,0,0,1.166.28l0.407-.18a1.842,1.842,0,0,1,2.088.5l2.1,2.43a2.925,2.925,0,0,1,.536,2.89,2.725,2.725,0,0,1-1.38,1.57l-1.246.62A3.772,3.772,0,0,1,682.973,1304.28Zm-2.624-18.52a1.065,1.065,0,0,0-.683-0.02l-1.016.33a2.432,2.432,0,0,0-1.647,2.24,17.792,17.792,0,0,0,5.848,13.97,2.279,2.279,0,0,0,2.478.34l1.246-.61a1.108,1.108,0,0,0,.552-0.63,1.179,1.179,0,0,0-.215-1.16l-2.1-2.43a0.272,0.272,0,0,0-.3-0.07l-0.408.18a2.6,2.6,0,0,1-2.958-.71,7.21,7.21,0,0,1-1.7-3.91,2.851,2.851,0,0,1,1.425-2.83l0.391-.21a0.239,0.239,0,0,0,.129-0.15,0.275,0.275,0,0,0,.015-0.13l-0.371-3.27A1.13,1.13,0,0,0,680.349,1285.76Z" transform="translate(-675.406 -1284)"/>
</svg>
