<svg xmlns="http://www.w3.org/2000/svg" width="19" height="14.66" viewBox="0 0 19 14.66">
  <defs>
    <style>
      .cls-1 {
        fill: #fff;
        fill-rule: evenodd;
        opacity: 0.39;
      }
    </style>
  </defs>
  <path id="email.svg" class="cls-1" d="M690.208,1376.92h0a1.023,1.023,0,0,0-.16-0.14,2.248,2.248,0,0,0-1.343-.45H674.278a2.319,2.319,0,0,0-2.288,2.35v9.97a2.326,2.326,0,0,0,2.288,2.35H688.7a2.326,2.326,0,0,0,2.287-2.35v-9.97A2.372,2.372,0,0,0,690.208,1376.92Zm-8.706,6.84-6.547-5.97H688.15Zm8.061,4.89a0.874,0.874,0,0,1-.859.88H674.278a0.875,0.875,0,0,1-.86-0.88v-9.97a0.894,0.894,0,0,1,.048-0.28l7.551,6.88a0.678,0.678,0,0,0,.474.19,0.712,0.712,0,0,0,.471-0.19,0.22,0.22,0,0,0,.066-0.04l7.515-6.75a0.872,0.872,0,0,1,.02.19v9.97Z" transform="translate(-672 -1376.34)"/>
</svg>
