<svg xmlns="http://www.w3.org/2000/svg" width="13.781" height="13.969" viewBox="0 0 13.781 13.969">
  <defs>
    <style>
      .cls-1 {
        fill: #fff;
        fill-rule: evenodd;
      }
    </style>
  </defs>
  <path id="in.svg_" data-name="in.svg " class="cls-1" d="M159.019,672.028c1.839,0,2.057.007,2.783,0.041a3.775,3.775,0,0,1,1.278.24,2.137,2.137,0,0,1,.792.523,2.176,2.176,0,0,1,.515.8,3.906,3.906,0,0,1,.237,1.3c0.033,0.737.04,0.958,0.04,2.824s-0.007,2.087-.04,2.824a3.906,3.906,0,0,1-.237,1.3,2.176,2.176,0,0,1-.515.8,2.125,2.125,0,0,1-.792.523,3.75,3.75,0,0,1-1.278.24c-0.726.034-.944,0.041-2.783,0.041s-2.056-.007-2.782-0.041a3.757,3.757,0,0,1-1.279-.24,2.133,2.133,0,0,1-.792-0.523,2.176,2.176,0,0,1-.515-0.8,3.933,3.933,0,0,1-.237-1.3c-0.033-.737-0.04-0.958-0.04-2.824s0.007-2.087.04-2.824a3.933,3.933,0,0,1,.237-1.3,2.176,2.176,0,0,1,.515-0.8,2.145,2.145,0,0,1,.792-0.523,3.783,3.783,0,0,1,1.279-.24c0.726-.034.944-0.041,2.782-0.041m0-1.259c-1.87,0-2.1.008-2.839,0.042a4.981,4.981,0,0,0-1.671.325,3.358,3.358,0,0,0-1.22.806,3.421,3.421,0,0,0-.794,1.238,5.158,5.158,0,0,0-.32,1.7c-0.034.746-.042,0.984-0.042,2.882s0.008,2.136.042,2.882a5.158,5.158,0,0,0,.32,1.7,3.421,3.421,0,0,0,.794,1.238,3.374,3.374,0,0,0,1.22.807,5.031,5.031,0,0,0,1.671.325c0.735,0.033.969,0.042,2.839,0.042s2.1-.009,2.839-0.042a5.038,5.038,0,0,0,1.672-.325,3.37,3.37,0,0,0,1.219-.807,3.424,3.424,0,0,0,.8-1.238,5.211,5.211,0,0,0,.32-1.7c0.033-.746.041-0.984,0.041-2.882s-0.008-2.136-.041-2.882a5.211,5.211,0,0,0-.32-1.7,3.424,3.424,0,0,0-.8-1.238,3.354,3.354,0,0,0-1.219-.806,4.987,4.987,0,0,0-1.672-.325c-0.734-.034-0.969-0.042-2.839-0.042m0,3.4a3.589,3.589,0,1,0,3.536,3.589,3.563,3.563,0,0,0-3.536-3.589m0,5.919a2.33,2.33,0,1,1,2.3-2.33,2.312,2.312,0,0,1-2.3,2.33m4.5-6.061a0.826,0.826,0,1,1-.826-0.839,0.832,0.832,0,0,1,.826.839" transform="translate(-152.125 -670.781)"/>
</svg>
