<svg xmlns="http://www.w3.org/2000/svg" width="10" height="15" viewBox="0 0 10 15">
  <defs>
    <style>
      .cls-1 {
        fill: #fff;
        fill-rule: evenodd;
      }
    </style>
  </defs>
  <path id="Mouse.svg" class="cls-1" d="M288,778a5.065,5.065,0,0,1-5.01-5.107v-4.781a5.011,5.011,0,1,1,10.02,0V772.9A5.065,5.065,0,0,1,288,778Zm0-13.679a3.76,3.76,0,0,0-3.718,3.791V772.9a3.719,3.719,0,1,0,7.437,0v-4.781A3.76,3.76,0,0,0,288,764.323Zm0,5.7a0.651,0.651,0,0,1-.645-0.657V766.4a0.646,0.646,0,1,1,1.291,0v2.971A0.651,0.651,0,0,1,288,770.027Z" transform="translate(-283 -763)"/>
</svg>
