<svg xmlns="http://www.w3.org/2000/svg" width="15.375" height="12.437" viewBox="0 0 15.375 12.437">
  <defs>
    <style>
      .cls-1 {
        fill: #fff;
        fill-rule: evenodd;
      }
    </style>
  </defs>
  <path id="tw.svg" class="cls-1" d="M123.393,672.288a6.52,6.52,0,0,1-1.813.5,3.127,3.127,0,0,0,1.385-1.735,6.328,6.328,0,0,1-2,.76,3.149,3.149,0,0,0-5.444,2.147,3.209,3.209,0,0,0,.073.716,8.909,8.909,0,0,1-6.485-3.284,3.138,3.138,0,0,0,.968,4.2,3.109,3.109,0,0,1-1.421-.387v0.034a3.155,3.155,0,0,0,2.521,3.085,3.116,3.116,0,0,1-.826.1,2.78,2.78,0,0,1-.595-0.053,3.175,3.175,0,0,0,2.939,2.187,6.329,6.329,0,0,1-3.9,1.34,5.836,5.836,0,0,1-.753-0.044,8.958,8.958,0,0,0,13.782-7.526c0-.138-0.005-0.273-0.012-0.406A6.289,6.289,0,0,0,123.393,672.288Z" transform="translate(-108.031 -670.813)"/>
</svg>
