<svg xmlns="http://www.w3.org/2000/svg" width="15.469" height="8.97" viewBox="0 0 15.469 8.97">
  <defs>
    <style>
      .cls-1 {
        fill: #fff;
        fill-rule: evenodd;
      }
    </style>
  </defs>
  <path id="vk.svg" class="cls-1" d="M38.565,1480.61H39.49a0.844,0.844,0,0,0,.422-0.19,0.684,0.684,0,0,0,.127-0.41s-0.018-1.25.558-1.44,1.3,1.21,2.07,1.75a1.459,1.459,0,0,0,1.029.31l2.067-.02s1.081-.07.568-0.93a7,7,0,0,0-1.537-1.79c-1.3-1.21-1.122-1.02.439-3.12,0.951-1.27,1.331-2.05,1.212-2.39a0.887,0.887,0,0,0-.812-0.23l-2.327.01a0.529,0.529,0,0,0-.3.06,0.615,0.615,0,0,0-.205.25,13.6,13.6,0,0,1-.86,1.83c-1.036,1.77-1.451,1.86-1.62,1.75-0.394-.25-0.3-1.03-0.3-1.58,0-1.72.259-2.43-.5-2.62a4.147,4.147,0,0,0-1.086-.11,4.884,4.884,0,0,0-1.931.2c-0.265.13-.469,0.42-0.345,0.44a1.057,1.057,0,0,1,.687.35,2.278,2.278,0,0,1,.23,1.06s0.137,2.02-.32,2.28c-0.313.17-.744-0.18-1.668-1.79a15.391,15.391,0,0,1-.831-1.74,0.69,0.69,0,0,0-.192-0.26,1.017,1.017,0,0,0-.357-0.15l-2.211.02a0.775,0.775,0,0,0-.454.15,0.5,0.5,0,0,0-.009.4,25.458,25.458,0,0,0,3.692,6.14A5.3,5.3,0,0,0,38.565,1480.61Z" transform="translate(-31 -1471.75)"/>
</svg>
