<?xml version="1.0" encoding="UTF-8" standalone="no"?>
<svg
   xmlns:dc="http://purl.org/dc/elements/1.1/"
   xmlns:cc="http://creativecommons.org/ns#"
   xmlns:rdf="http://www.w3.org/1999/02/22-rdf-syntax-ns#"
   xmlns:svg="http://www.w3.org/2000/svg"
   xmlns="http://www.w3.org/2000/svg"
   id="svg8"
   version="1.1"
   viewBox="0 0 125.4125 259.2652"
   height="259.2652mm"
   width="125.4125mm">
  <defs
     id="defs2" />
  <metadata
     id="metadata5">
    <rdf:RDF>
      <cc:Work
         rdf:about="">
        <dc:format>image/svg+xml</dc:format>
        <dc:type
           rdf:resource="http://purl.org/dc/dcmitype/StillImage" />
        <dc:title></dc:title>
      </cc:Work>
    </rdf:RDF>
  </metadata>
  <g
     transform="translate(-158.7878,-98.575731)"
     id="layer1">
    <g
       transform="matrix(0.26458333,0,0,0.26458333,71.815478,70.227517)"
       id="g20">
      <g
         style="fill:#ffffff"
         transform="translate(65.714286,97.142857)"
         id="g43">
        <path
           style="fill:#ffffff"
           d="M 510.7,743.1 H 489.2 C 428.9,743.1 372.2,721.7 329.5,683 286.6,644 263,592.2 263,536.9 V 216.2 C 263,161 286.6,109.1 329.5,70.1 372.3,31.4 429,10 489.3,10 h 21.5 c 60.3,0 117,21.4 159.7,60.1 42.9,39 66.5,90.8 66.5,146.1 V 536.9 C 737,592.1 713.4,644 670.5,683 627.7,721.7 571,743.1 510.7,743.1 Z M 489.3,25.6 c -116.2,0 -210.7,85.5 -210.7,190.6 v 320.7 c 0,105.1 94.5,190.6 210.7,190.6 h 21.5 C 627,727.5 721.5,642 721.5,536.9 V 216.2 C 721.5,111.1 627,25.6 510.8,25.6 Z"
           id="path35" />
        <path
           style="fill:#ffffff"
           d="m 501,397 c -4.3,0 -7.8,-3.5 -7.8,-7.8 V 112.6 c 0,-4.3 3.5,-7.8 7.8,-7.8 4.3,0 7.8,3.5 7.8,7.8 v 276.6 c 0,4.3 -3.5,7.8 -7.8,7.8 z"
           id="path37" />
        <path
           style="fill:#ffffff"
           d="m 561,819.9 -11,-11 -56.4,56.3 -56.2,-56.1 -11,11 67.1,67 0.3,-0.3 v 0 z"
           id="path39" />
        <path
           style="fill:#ffffff"
           d="m 562,922.7 -11,-11 -56.4,56.3 -56.2,-56.1 -11,11 67.1,67 0.3,-0.3 v 0 z"
           id="path41" />
      </g>
    </g>
  </g>
</svg>
